<svg version="1" xmlns="http://www.w3.org/2000/svg" width="5333.333" height="5333.333" viewBox="0 0 4000.000000 4000.000000"><path d="M0 2000v2000h4000V0H0v2000zm1360.9-362c2.5.5 6.4 1.1 8.6 1.4 2.2.2 7.2 1.1 11 1.9 3.9.9 8.2 1.8 9.5 2 2.4.5 9.6 2.4 18.5 4.9 2.2.6 4.4 1.5 5 2 .5.4 1.8.8 3 .8s2.5.4 3 .9c.6.4 4 2 7.8 3.5 27.9 10.9 52.1 26.6 80.9 52.6 2.5 2.2 19.7 21.7 23.9 27 19.5 24.7 36.4 59.1 44.4 90 .9 3.6 2 8.1 2.6 10.1.5 2 2 10.6 3.3 19.3 6.4 41.7.8 88.6-15.5 129.8-22.4 56.7-65.4 103.8-120.4 131.8-14.5 7.5-17.1 8.6-33.5 14.2-16.8 5.9-36.5 10.2-56 12.5-7.1.8-43.8.8-51-.1-18.9-2.1-49.3-8.5-51.6-10.9-.4-.4-1.6-.7-2.6-.7s-2.6-.4-3.6-.9c-.9-.5-4.4-2-7.7-3.2-9.8-3.7-26.1-11.5-35.7-17.1-4.9-2.9-9.7-5.8-10.7-6.3-3.4-2-15.8-11.1-23.1-16.9-11.1-8.9-31.4-29.8-40-41.2-7.4-9.8-16-22.1-16-23 0-.2-1.1-2.2-2.5-4.4-6.6-10.4-17.1-33.5-21.7-47.5-5-15.5-10.5-40.4-11.4-52-.2-2.8-.8-10.3-1.4-16.8-1.1-11.2-.9-14.4 1.5-40.7 1.4-14.6 6.8-38.2 13-56 7.8-22.5 25.6-54.5 40.9-73.5 8.2-10.3 30.7-32.4 41.1-40.5 28.4-22 63.6-39.4 94.5-46.8 2.5-.6 5.9-1.4 7.5-1.8 1.7-.4 3.8-.9 4.9-1 1-.1 4.1-.6 7-1.2 2.8-.6 7.8-1.5 11.1-2 8.2-1.2 55.6-1.4 61.4-.2zm536.1 0c1.9.5 5.8 1.1 8.5 1.4 15.3 1.5 41 8.6 60.5 16.8 39.8 16.8 75 43.6 100.8 76.9 11.5 14.8 11.2 14.4 17.9 25.4 17.2 28.5 27.5 56.3 33.4 90.5 2.7 15.2 2.7 15.8 2.9 39.5.4 35.2-5.1 64.5-18.2 97.5-6.6 16.5-20.2 40.7-31.3 55.5-13.3 17.8-34.3 38.8-52 52-13.8 10.4-43.6 27.3-56.1 31.8-16.6 6.1-22.4 7.9-32.9 10.6-13.8 3.4-17.5 4.1-23 4.7-2.2.2-5.8.8-8 1.3-9.4 2.1-54.7 2.1-63 0-1.6-.4-5-1-7.5-1.3-26.5-2.7-64.8-16.7-92.6-33.7-32.7-20-59.7-46.2-81.2-78.9-21.1-32-35.3-72.5-39.8-113.2-.7-6.6-.8-41.5 0-48.3 8.5-81.4 52.6-151.6 121.4-193.3 28.7-17.4 67-31.2 94-33.9 2.9-.3 6.5-.9 8-1.3 3.7-1.1 53.9-1.1 58.2 0zm493.7 6.4c.4.4-5.2 6.6-12.3 13.9-7.1 7.3-23.5 24.4-36.4 38.2-12.9 13.7-29.3 31-36.5 38.5-7.1 7.5-23.6 24.8-36.5 38.5-12.9 13.7-31.3 33-40.7 42.9-9.5 9.9-17.3 18.4-17.3 18.9 0 1.2 23.3 29.1 37.9 45.2 2.6 2.8 8 9.1 12.1 14s9.8 11.4 12.5 14.5c2.8 3.1 11.3 13 19 22 7.7 9 16 18.7 18.5 21.5 2.5 2.9 7.9 9.2 12.2 14.1 4.2 4.9 12.7 14.8 19 22 6.2 7.2 14.7 17.1 18.8 21.9 4.1 4.9 9.5 11.2 12 14 2.5 2.8 8.3 9.6 13 15 4.7 5.4 10.3 11.9 12.6 14.4 2.2 2.5 5.3 6.2 7 8.2 4.4 5.4 26.2 30.7 31.3 36.4 2.6 2.8 8 9.1 12.1 14s9.7 11.2 12.3 14.1c2.6 2.9 4.4 5.5 3.9 5.8-.4.3-9.8.6-20.7.7l-19.9.1-2.6-2.9c-1.4-1.6-5.9-6.9-10-11.8s-9.5-11.2-12-14.1c-2.5-2.8-7.6-8.9-11.5-13.4-3.8-4.6-9-10.7-11.5-13.5-2.5-2.8-7.6-8.9-11.5-13.5-3.8-4.6-11.3-13.2-16.5-19.3-5.2-6-11.1-12.9-13-15.3-4.2-5.2-12-14.2-17.5-20.4-2.2-2.5-7.1-8.3-11-12.9-3.8-4.6-11.3-13.3-16.5-19.4-5.2-6-10.6-12.4-11.9-14.1-1.4-1.7-4.3-5.1-6.5-7.7-2.3-2.5-7.5-8.5-11.6-13.4-4.1-4.8-9.3-10.9-11.5-13.5-2.2-2.6-9.8-11.6-17-20.1-15.9-18.9-21.1-24.3-22.5-23.4-.7.4-1 39.3-1 124.1V2132h-50v-486h50v71.5c0 69.3.1 71.5 1.9 71.5 1.1 0 5.5-4 10.7-9.8 4.8-5.3 13.1-14.2 18.3-19.7 5.3-5.5 17.7-18.8 27.6-29.5 9.9-10.7 22.5-24.2 28-30 13.3-14 34.4-36.7 42.9-46 3.8-4.1 7.6-8.2 8.5-9 1.4-1.2 5.3-1.5 22.5-1.4 11.4.1 21 .5 21.3.8zm610.5.8c-.3 1.4-15 34.2-51.7 115.3-1.3 2.7-7.6 16.7-14 31-6.5 14.3-12.8 28.2-14 31-1.3 2.7-7.6 16.7-14 31-6.5 14.3-12.8 28.2-14 31-1.3 2.7-7.6 16.7-14 31-6.5 14.3-12.8 28.2-14 31-18.4 40.4-26.5 58.8-26.5 60 0 1.6 1.3 4.8 19 45.5 21.7 50 34 79.1 34 80.1 0 1.1-48.3.9-49.5-.3-.4-.3-4.7-10-9.7-21.5-4.9-11.4-12.6-29.1-17-39.3-4.4-10.2-13.3-30.9-19.8-46-6.5-15.1-16.4-38.1-22-51-5.6-12.9-16.8-39-25-58s-19.4-45.1-25-58c-5.6-12.9-15.5-35.9-22-51-6.5-15.1-16.4-38.1-22-51-5.6-12.9-17.6-40.8-26.7-62-9.1-21.2-17.1-39.6-17.8-41-.7-1.4-1.6-3.5-1.9-4.8l-.7-2.2 25.1.2 25.2.3 14 32.5c7.6 17.9 15.9 37 18.3 42.5 2.4 5.5 14.2 32.9 26.3 61 12.1 28 32 74.2 44.2 102.5 26.2 60.8 33.5 77.9 34.3 80.2.7 2.1 2.1 2.3 3.4.5.5-.6 3.6-7.1 6.8-14.2 3.2-7.2 12.3-27.4 20.3-45 7.9-17.6 20.6-45.7 28.2-62.5 35.6-79 42.9-95.1 56.1-124.3 7.8-17.1 18.1-40.2 23.1-51.1 4.9-10.9 9.5-21.1 10.3-22.5l1.3-2.6 15.8.2c12.7.1 15.8.4 15.6 1.5zm-2130 .8c1.8.5 4.9 1.1 6.8 1.3 3.8.5 21.7 5 29 7.4 2.5.8 9.5 3.5 15.5 6 37.5 15.8 69.3 41.6 90.7 73.8 6.5 9.9 17.5 31.6 20.7 41 3.7 10.9 8.2 29.7 8.6 36 1.6 21.5 1.6 27.9.1 40-3.9 32.4-15.3 60.8-35.3 87.6-6.2 8.3-25 27.7-33.4 34.4-19.6 15.8-47.3 30.7-68.4 36.9-3.3 1-6.6 1.9-7.2 2.2-3.1.9-.9 4.1 5.5 8 5.9 3.6 21.8 13.6 47.5 29.9 4.4 2.8 12.5 7.9 18 11.5 5.6 3.7 10.9 6.9 11.7 7.3.8.4 6.7 4.1 13 8.1 9.5 6.2 37.2 23.8 46.5 29.6 1.3.8 7.3 4.6 13.4 8.5 6.1 3.8 14.5 9.1 18.7 11.7 6.8 4.2 7.3 4.8 5.2 5.3-1.4.4-13.9.5-27.9.3l-25.4-.3-12-7.7c-11.3-7.3-41.7-26.5-47-29.8a33773 33773 0 0 1-42.8-27.1c-8.1-5.2-15.8-10.1-17.2-10.9-5.8-3.6-23.6-14.8-30.4-19.2-4-2.7-8-4.8-8.7-4.8-1.1 0-1.4 8.6-1.6 49.7l-.3 49.8-23.5.3c-12.9.1-24.4 0-25.5-.2-2-.5-2-1.2-1.8-243.8.2-133.8.3-243.4.3-243.6 0-.7 54.3 0 57.2.8zm2244.8 4.1c3.4 4.5 10.5 13.6 20.6 26.8 2.7 3.5 7.6 9.9 10.9 14.2 3.3 4.2 10.6 13.7 16.2 21.1 5.7 7.3 14.8 19.1 20.3 26.3 5.6 7.1 14.6 18.8 20 26 5.5 7.1 14.5 18.8 20 26 11.4 14.7 23.3 30.2 27 35 1.4 1.8 5.2 6.8 8.6 11.2 3.3 4.3 7.8 10.1 10 12.9 2.1 2.8 6.6 8.7 10 13 3.3 4.3 8 10.4 10.3 13.4 9.6 12.5 18.6 24.2 28.1 36.5 5.5 7.1 14.6 19 20.3 26.3 5.6 7.3 14.6 19 20 26s13 16.9 17 22.1c4 5.1 8.3 10.8 9.7 12.6 3.3 4.3 16.9 21.9 20 26 2.5 3.4 7.6 9.9 18.4 23.8 3.4 4.3 6.9 9.1 7.8 10.5 1 1.5 2.3 2.7 3 2.7 1 0 1.4-41.5 1.8-208.5l.5-208.5h28l.3 253.2c.1 139.3-.1 253.3-.5 253.2-.5 0-4.8-5.4-9.8-12-8.2-10.9-16.1-21.2-24.8-32.5-3-3.8-15.1-19.6-20.7-26.9-1.4-1.8-5.2-6.8-8.6-11.2-3.3-4.3-7.8-10.1-10-12.9-2.1-2.8-6.1-8-8.8-11.5-2.7-3.5-7.7-10-11-14.3-3.4-4.3-8.8-11.4-12.1-15.7-3.3-4.2-10.7-13.9-16.5-21.4-5.8-7.5-14.9-19.3-20.3-26.3s-13-16.9-17-22.1c-4-5.1-8.3-10.8-9.7-12.6-4-5.2-17.3-22.5-20-26-1.4-1.8-5.2-6.8-8.6-11.2-3.3-4.3-7.8-10.1-10-12.9-2.1-2.8-6.6-8.7-10-13-3.3-4.3-8.3-10.8-11-14.3-2.7-3.5-7.6-9.9-10.9-14.2-3.3-4.2-10.7-13.9-16.5-21.4-5.8-7.5-14.9-19.3-20.3-26.3s-13-16.9-17-22.1c-4-5.1-8.3-10.8-9.7-12.6-4-5.2-17.3-22.5-20-26-1.4-1.8-5.4-7.1-8.9-11.7-3.6-4.5-8.9-11.5-11.9-15.3-2.9-3.9-5.9-7-6.5-7-.9 0-1.3 49.9-1.5 216.7l-.2 216.8h-49.8l-.6-2.3c-1-3.8-.7-482.2.4-483.3.5-.5 11.4-.9 25.7-.9h24.7l3.6 4.6zm-2513-1.2c19 7.6 32.1 19.3 40.4 35.9 3.4 6.7 7.6 23.5 7.6 30.1 0 12.6-6.8 31.4-15.4 42.5-2.5 3.2-4.6 6.1-4.6 6.5 0 .4 1.7 1.3 3.8 2 46.1 15.6 81.7 41.8 107.4 79 15.4 22.4 26 49.4 29.9 76.7 1.3 9.2 1.7 30.8.7 40.9-1.9 18.5-8.3 40-17.4 58.3-5.4 11-8.2 15.7-16.4 27.6-10.5 15.4-33.5 37-51.5 48.7-10.1 6.5-13 8.1-24.6 13.8-17.3 8.4-40.9 16.3-52.9 17.7-1.9.3-4.8.9-6.5 1.6-1.8.6-15.1 1.3-34.4 1.6-25.9.4-31.5.2-32.2-.9-1-1.6-1.2-480.8-.3-483.4.6-1.5 3.4-1.6 30.8-1.3 28.2.4 30.4.6 35.6 2.7zm1950 224.6V2101l74.3.2 74.2.3v30l-99.2.3-99.3.2v-486h50v227.5zm-1493.5 373.6c16.5 3 24.3 13.2 23.3 30.4-.6 9-2.7 14.2-7.7 18.9-1.7 1.7-3.1 3.2-3.1 3.6 0 .3 1.8 1.6 4 3 5.4 3.3 8.9 8.5 11.1 16.7 2.4 8.5 2.4 10.6-.2 18.8-3.4 11.1-12 18.6-24.4 21.3-2.8.6-12.2 1-21 .9l-16-.2-.3-56c-.1-30.8 0-56.6.3-57.3.6-1.6 25.6-1.7 34-.1zm233.3 2.8c.2 1.9.1 4.4-.2 5.7l-.6 2.4-19.6.2-19.5.3-.1 18v18l18.8.5 18.9.5v11l-18.7.3-18.7.2-.3 20.3c-.2 11.1-.2 20.5 0 20.9.2.5 9.3.8 20.2.8 13.6 0 19.9.3 20.2 1.1.2.6.1 3.2-.2 5.8l-.5 4.6h-52l-.3-56c-.1-30.8 0-56.6.3-57.3.3-1 6.1-1.2 26.2-1l25.8.3.3 3.4zm190.4 4.6c1.4 4.4 7.1 21.9 12.6 39 5.5 17 12.5 38.8 15.6 48.3 3.1 9.5 5.6 17.7 5.6 18.3 0 .6-2.3.9-5.7.7l-5.7-.3-5.9-17.8-5.8-17.7h-20.4c-20.3 0-20.4 0-21 2.2-.7 2.2-9.2 29.9-10 32.5-.4 1.3-10.6 1.9-11.8.7-.3-.3-.2-1.6.3-2.7.5-1.2 4-12.1 7.9-24.2 23.5-74.4 25.7-81.5 27-84.8 1.1-2.7 1.3-2.8 7.8-2.5l6.8.3 2.7 8zm189.8 36c.5 42.2.6 44.2 2.7 48.6 2.6 5.7 6.1 8.5 13.1 10.5 6.9 2 14.9 1.3 21.2-2 3.4-1.7 5.3-3.7 7.5-7.7l3-5.4.5-44 .5-44h11v45c0 44.8 0 45-2.3 50.8-4.1 10.1-9.4 14.7-21.4 18.5-7.4 2.4-16.2 2.8-21.7 1.1-12.8-4-19.2-9.4-23.2-19.5-2.4-5.8-2.4-6.3-2.7-49.8-.2-24.1-.1-44.5.2-45.3.4-1 2-1.3 5.8-1.1l5.3.3.5 44zm267.8-40.6c.2 1.9.1 4.4-.2 5.7-.6 2.4-.8 2.4-13.6 2.4h-13l-.2 51.2-.3 51.3h-12l-.3-51.2-.2-51.2-12.8-.3-12.7-.3-.3-4.4c-.6-7.6-2.9-7.2 33-6.9l32.3.3.3 3.4zm143.6.6c1.2 2.2 6.1 11 10.8 19.5 4.7 8.5 9.6 17.4 10.8 19.7 1.2 2.4 2.7 4.3 3.4 4.3 1.5 0 .3 1.9 20.3-33.8 1.4-2.4 3.7-6.5 5.2-9l2.7-4.7 6.2-.3c3.6-.2 6.2.1 6.2.7 0 .5-.9 2.5-1.9 4.3-2.5 4.5-18.3 32.3-21.1 37.3-1.2 2.2-4.2 7.5-6.6 11.7l-4.4 7.7v52.1l-2.3.6c-1.3.3-4.1.4-6.3.2l-3.9-.3-.1-26.3-.2-26.3-11.3-20.2c-6.2-11.1-13.6-24.5-16.6-29.7-2.9-5.2-5.3-10.1-5.3-10.8 0-1 1.6-1.2 6.1-1 6 .3 6.2.4 8.3 4.3zm422.6-1.1c7.2 3.6 10.4 6.7 13 12.8 4.8 11.3 2.6 25.5-5.3 33.6-3.9 4.1-4.1 4.5-2.3 5.6 4.2 2.5 9.9 8.2 11.9 12 1.9 3.5 2.2 5.7 2.2 15.1 0 10.6-.1 11.2-3.3 16.8-3.8 6.5-9.1 10.6-17.3 13.4-4.5 1.5-8.6 1.8-23.9 1.8h-18.5l-.3-56c-.1-30.8 0-56.6.3-57.4.4-1.1 4-1.3 19.3-.9 18 .4 18.9.5 24.2 3.2zm210.4.8c1.7 4.4 2.6 7.2 16.6 50.8 4.5 14 10.6 32.9 13.6 42 3 9 5 16.8 4.5 17.3-.4.4-3 .7-5.7.5l-4.9-.3-5.6-16.8c-3.1-9.3-6.1-17.3-6.6-17.8-.6-.6-9.1-.8-20.7-.7l-19.8.3-2.8 9c-1.5 4.9-3.9 12.9-5.4 17.7l-2.7 8.8h-5.4c-3 0-5.6-.3-5.8-.8-.3-.4 1.7-7.5 4.3-15.7 4.6-14.1 11-34.4 24.6-77 3.1-9.9 6.1-18.8 6.6-19.8.7-1.3 2.2-1.7 7.3-1.7h6.3l1.6 4.2zm225.7.1c8.1 3.7 9.6 5.1 12.9 11.4 2.6 5.1 3.8 17.8 2.1 23.8-1.6 6-5.9 12-10.8 15-2.3 1.6-4.3 3.3-4.3 4 0 .6 1.4 2.2 3.1 3.4 3.2 2.4 7.1 10.1 8.2 16.1.4 1.9 2.2 10.7 4.1 19.5 1.8 8.8 3.2 16.3 2.9 16.7-.2.5-2.9.8-5.8.8-6 0-5.5.6-7.4-9-5.6-28.7-7.7-34.5-14.4-39.4-2.3-1.7-4.3-2-13-2.1h-10.2l-.3 24.7-.2 24.8-2.4.6c-1.2.3-4 .4-6.2.2l-3.9-.3-.3-56c-.1-30.8 0-56.6.3-57.4.5-1.2 3.8-1.3 19.4-.8l18.9.5 7.3 3.5z"/><path d="M1315.5 1664.7c-14.7 1.2-22.2 2.1-30 3.8-13.9 3-28.7 7.3-36 10.5-2.2 1-7.4 3.2-11.5 5-12.9 5.5-33.7 17.9-45 26.9-10 7.9-20.8 18.2-30.2 28.5l-9.8 10.9V2030l8.2 9.3c10.1 11.3 8.4 9.5 19.9 19.7 12.6 11.1 15.5 13.3 27.5 21.3 20.7 13.6 40.8 22.2 68.9 29.8 16 4.3 46.4 7.5 61.2 6.5 20.2-1.4 21.8-1.5 24.8-2.2 1.7-.3 4.6-.8 6.5-1 7.8-1 33.9-8 41-11.1 1.9-.8 4.4-1.8 5.5-2.3 14.4-5.4 44.2-22.8 57.1-33.5 8.5-7 24.4-22.7 31.7-31.5 21.2-25.1 39.6-61.4 46.2-90.8 2.6-11.5 3.7-17.3 4-20.2.2-1.9.7-7.1 1.3-11.5 1.3-11.9.6-43.3-1.3-56-3.4-22.9-9.9-43.6-20.5-65-3.8-7.7-7.8-15.4-8.8-17-18.8-31.2-44.6-57.5-75.7-77-9-5.6-25.7-14.1-33.7-17.1-2.4-.9-5.2-2-6.3-2.4-8.2-3.5-34.1-10.4-43-11.5-3.4-.4-18.4-1.7-32-2.8-2.2-.1-11.2.3-20 1zM1866 1663.3c-.3.3-6.3.8-13.5 1.1-7.1.4-14.7 1.1-16.9 1.7-2.1.6-4 .8-4.3.6-.2-.3-1.9-.1-3.6.4-1.8.6-4.7 1.2-6.6 1.5-1.9.2-6 1.1-9 2-3.1.8-8 2.2-11 3-3 .8-7.5 2.4-9.9 3.4-2.5 1.1-4.9 2-5.4 2-1.8 0-30 14-34.4 17.1-2.3 1.6-4.5 2.9-4.8 2.9-1 0-14.3 9.8-22.1 16.1-7 5.7-26.8 25.5-31.8 31.7l-2.7 3.4v280.4l9.4 10.5c24.1 26.8 52.8 46.9 83.6 58.8 4.7 1.9 9.3 3.7 10.2 4.2 1 .5 2.5.9 3.3.9.8 0 2.3.4 3.3.9.9.5 3.5 1.4 5.7 1.9 2.2.6 5.8 1.5 8 2.1 10.7 2.7 24 5.1 31 5.6 2.8.2 9.9.6 15.8 1.1 18 1.2 42.6-1.7 66.7-7.8 17.4-4.4 38.9-13.4 55.9-23.4 27.5-16.1 53.9-41 72.7-68.4 42.4-61.8 50.7-142.3 22.1-212.5-6.8-16.6-13.7-29.1-26.7-47.9-8.6-12.4-31.6-35.8-45.5-46.3-11.4-8.5-15.3-11.3-15.9-11.3-.3 0-2.4-1.3-4.8-2.9-4.6-3.1-32.9-17.1-34.6-17.1-.5 0-2.9-.9-5.4-2-2.4-1-6.9-2.6-9.9-3.4-18.4-5.1-17.9-5-29.3-6.6-3.7-.6-7.1-1.2-7.5-1.4-.3-.2-6-.7-12.6-1-6.6-.4-13.6-.9-15.5-1.2-2-.3-3.8-.3-4-.1zM865 1833.5v158.6l4.8-.6c6.2-.8 14.1-2.5 17-3.6 1.3-.5 3.4-.9 4.7-.9 1.3 0 2.7-.5 3-1 .3-.6 1.7-1 3-1s2.7-.5 3-1c.3-.6 1.5-1 2.6-1 1 0 2.7-.4 3.7-.9.9-.5 2.8-1.3 4.2-1.9 3.4-1.3 20.8-9.9 24.5-12 21.7-12.4 43-32.6 58.2-55.2 4.3-6.4 12.8-24.3 15.4-32.5 1.2-3.9 2.5-7.9 3-9 .4-1.1 1-3.6 1.4-5.5.3-1.9 1.1-6.4 1.7-10 .6-3.6 1.2-13.7 1.2-22.5 0-14.9-.6-21.1-3.4-34-.6-2.8-1.3-6.2-1.7-7.8-.3-1.5-.9-3-1.4-3.3-.5-.3-.9-1.4-.9-2.5 0-1-.4-2.7-.9-3.7-.5-.9-1.7-3.5-2.6-5.7-11.6-27.5-32.4-52.8-57.4-70-10-6.9-25.9-15.6-33.6-18.5-3.1-1.1-7.8-3.1-9.7-4.1-1-.5-2.7-.9-3.7-.9-1.1 0-2.2-.4-2.5-.9-.3-.5-1.8-1.1-3.3-1.4-1.6-.3-4.8-1.1-7.3-1.7-9.3-2.3-13.6-3.2-18.2-3.7l-4.8-.5v158.7zM587.2 1715.2l.3 44.3 3.5-.3c3.9-.3 5.1-.7 13.3-4.8 16.6-8.2 27.1-28.7 23.8-46.2-1.7-8.8-6.4-17.5-12.7-23.7-6.4-6.4-7.3-7-12.6-9.3-8.3-3.7-9.9-4.2-12.9-4.2H587l.2 44.2zM587.2 1944.7l.3 159.8 4-.1c2.2-.1 6.9-.7 10.5-1.3 3.6-.7 8.2-1.4 10.3-1.8 2-.3 4-.9 4.3-1.4.3-.5 1.5-.9 2.6-.9 2 0 6.6-1.2 11.3-3 21.1-8.2 23.4-9.2 36.7-16.8 16-9.1 38.8-29.7 50.2-45.1 9.6-13.1 17.7-28.9 22.5-44 2.7-8.3 3.7-12.5 6-25.7 1.4-7.7 1.4-31 0-38.8-2.4-13.9-4.2-21.7-5.9-26.1-.5-1.1-1.8-4.7-3.1-8-4.5-12.1-12.5-26.4-21.3-38-5.3-7-23.8-25.5-31.1-31-12.6-9.5-29.4-19.1-43.5-24.7-1.4-.6-3.3-1.4-4.2-1.9-1-.5-2.7-.9-3.7-.9-1.1 0-2.3-.5-2.6-1-.3-.6-1.7-1-3-1s-2.6-.4-2.9-.9c-.3-.5-2-1.1-3.8-1.4-1.8-.3-5.3-1.1-7.8-1.7-6.1-1.5-14.4-3-20.8-3.7l-5.2-.5.2 159.9zM1037 2276.4v18.6h10.5c11 0 12.7-.5 17.8-5 3.9-3.4 5.7-8.2 5.7-14.7 0-6.4-1.8-10.3-6.5-13.8-3.1-2.5-4.4-2.7-15.5-3.2l-12-.6v18.7zM1037.7 2307.7c-.4.3-.7 9.8-.7 21v20.3h9c14.1 0 22.6-2.8 26.8-9 1.8-2.7 2.2-4.7 2.2-11 0-11.9-3.8-17.4-14.4-20.4-5.4-1.6-21.6-2.2-22.9-.9zM1471 2266.4c-.5 1.4-1.7 5.1-2.6 8.3-1.5 5.4-5.5 19.2-9 31-.9 2.9-1.3 5.7-.9 6.3.4.6 6.3 1 15.6 1 14.1 0 14.9-.1 14.9-2 0-1-.4-2.9-.9-4.2-.5-1.3-3.3-9.7-6.1-18.8-6.6-20.8-7.5-23.3-8.9-23.8-.6-.2-1.5.8-2.1 2.2zM2476 2276.4v18.5l9.2.3c13.7.5 19-1.7 23-9.6 2.7-5.2 2.7-15.3.1-19.8-3.1-5.5-8.3-7.4-21.2-7.7l-11.1-.2v18.5zM2476.4 2308.3c-.2.7-.3 10-.2 20.7l.3 19.5 9.2.3c19.8.6 29.3-5.9 29.3-20.1 0-10-5.3-17.4-14.5-20.2-6.4-1.9-23.3-2.1-24.1-.2zM2707 2264.5c0 .9-6 22.2-9.9 35.2-1.7 5.6-3.1 10.9-3.1 11.8 0 1.3 2.2 1.5 15.5 1.5 11.3 0 15.5-.3 15.5-1.2 0-.6-.8-3.7-1.9-6.7-1.6-4.8-7.9-25-11.3-36.1-1-3.3-2.4-5-4-5-.5 0-.8.2-.8.5zM2910.2 2278.1l.3 20.4 4 .3c6 .6 17.4-1.8 22.2-4.5 6.6-3.7 9.4-8.1 10.1-15.8.7-8.8-1.5-13.6-7.7-17.3-4.1-2.4-5.7-2.7-16.8-3l-12.3-.4.2 20.3z"/></svg>